<svg xmlns="http://www.w3.org/2000/svg" fill="none" viewBox="0 0 100 100"><g clip-path="url(#a)"><path fill="#2684ff" d="M3.246 5A3.204 3.204 0 0 0 .042 8.717l13.6 82.568a4.36 4.36 0 0 0 4.262 3.636h65.25a3.204 3.204 0 0 0 3.203-2.691L99.96 8.733a3.2 3.2 0 0 0-.736-2.604 3.2 3.2 0 0 0-2.468-1.112zm57.271 59.675H39.691l-5.639-29.46h31.512z"/><path fill="url(#b)" d="M95.55 35.173H65.506L60.463 64.61h-20.81l-24.57 29.165a4.34 4.34 0 0 0 2.8 1.057h65.214a3.2 3.2 0 0 0 3.202-2.69z"/></g><defs><linearGradient id="b" x1="102.497" x2="67.79" y1="43.416" y2="92.697" gradientUnits="userSpaceOnUse"><stop offset=".18" stop-color="#0052cc"/><stop offset="1" stop-color="#2684ff"/></linearGradient><clipPath id="a"><path fill="#fff" d="M0 0h100v100H0z"/></clipPath></defs></svg>