<svg xmlns="http://www.w3.org/2000/svg" fill="none" viewBox="0 0 100 100"><g clip-path="url(#a)"><path fill="#3880ff" fill-rule="evenodd" d="m95.102 28.3.408.952C98.503 35.85 100 42.789 100 50c0 27.55-22.45 50-50 50S0 77.55 0 50 22.449 0 50 0c8.095 0 15.782 1.905 22.857 5.442l.952.476-.816.68a15.5 15.5 0 0 0-4.625 6.055l-.273.68-.612-.272C61.973 10.476 56.123 9.116 50 9.116 27.415 9.116 9.116 27.415 9.116 50S27.415 90.884 50 90.884 90.884 72.517 90.884 50c0-5.374-1.02-10.68-3.129-15.646l-.272-.68.68-.273a15.9 15.9 0 0 0 6.259-4.285zm-12.381.952c5.748 0 10.408-4.66 10.408-10.408 0-5.749-4.66-10.409-10.408-10.409s-10.408 4.66-10.408 10.409c0 5.748 4.66 10.408 10.408 10.408M50 27.212c-12.585 0-22.79 10.203-22.79 22.788S37.416 72.79 50 72.79 72.789 62.584 72.789 50s-10.204-22.789-22.79-22.789" clip-rule="evenodd"/></g><defs><clipPath id="a"><path fill="#fff" d="M0 0h100v100H0z"/></clipPath></defs></svg>