<svg xmlns="http://www.w3.org/2000/svg" fill="none" viewBox="0 0 100 100"><path fill="#fff" d="M34.887 60.426c.054-.25.1-.492.159-.709l.254.605c.479 1.166.954 2.32 2.108 2.975-.05 1.058-1.392 1.487-2.3 1.358-.2-.475-.479-.95-1.062-.683-.596.233-1.25-.042-1.109-.771 1.388-.05 1.696-1.546 1.95-2.775m41.717-21.904a4.95 4.95 0 0 0-3.496 1.425l-3.758 3.695a4.84 4.84 0 0 0-1.43 3.805l.026.233a4.75 4.75 0 0 0 1.404 2.842c.541.533 1.137.875 1.862 1.108a3.61 3.61 0 0 1-1.029 3.237l-.233.23a8.43 8.43 0 0 1-5.646-6.48l-.042-.237-.191.154q-.19.15-.367.325l-3.758 3.696a4.817 4.817 0 0 0 0 6.875 4.97 4.97 0 0 0 3.5 1.425 4.97 4.97 0 0 0 3.491-1.42l3.759-3.7a4.815 4.815 0 0 0-1.817-8.005 3.97 3.97 0 0 1 1.15-3.508 8.59 8.59 0 0 1 5.713 6.541l.041.238.196-.154q.19-.15.367-.325l3.758-3.7a4.81 4.81 0 0 0 0-6.875 4.95 4.95 0 0 0-3.5-1.425"/><path fill="#fff" fill-rule="evenodd" d="M74.588 25H25.417C11.4 25 0 36.217 0 50c0 13.784 11.4 25 25.413 25h49.17C88.6 75 100 63.784 100 50c0-13.783-11.4-25-25.412-25M50.333 64.196c-.812.167-1.725.196-2.341-.441-.188.416-.567.32-.921.233a3 3 0 0 0-.254-.059c-.042.105-.071.2-.109.305-1.37.087-2.395-1.288-3.05-2.325q-.962-.49-1.97-.875c-.717-.292-1.438-.584-2.121-.959q-.022.36-.017.721c-.008 1.017-.017 2.096-.946 2.713-.029 1.229.983 1.216 1.983 1.208.863-.013 1.709-.02 1.863.767q-.105.011-.208.012c-.192 0-.384 0-.53.142-.487.462-1.008.262-1.55.054-.5-.192-1.012-.392-1.529-.083a10 10 0 0 0-1.091.641 4.04 4.04 0 0 1-2.284.809c-.1-.15-.058-.246.025-.334q.097-.11.18-.233c.079-.117.145-.238.212-.35.225-.396.43-.75 1.008-.917-.77-.12-1.433.23-2.083.571l-.017.008q-.135.073-.27.142c-.405.167-.642.038-.884-.096-.342-.187-.7-.383-1.567.167-.166-.133-.083-.254.009-.358.379-.455.875-.521 1.437-.496-1.462-.804-2.516-.233-3.375.229-.758.408-1.362.733-1.962-.05-.271.07-.425.263-.575.45a2 2 0 0 1-.196.23c-.146-.163-.113-.347-.075-.534l.02-.109a1 1 0 0 0 .013-.125l-.112-.041c-.221-.092-.438-.183-.375-.517-.488-.166-.834.125-1.192.392-.225-.171-.041-.396.134-.604q.113-.122.187-.271c.158-.271.43-.28.692-.288.225-.004.45-.012.604-.175.554-.312 1.237-.15 1.925.013.504.117 1.008.237 1.475.175.846.104 1.892-.75 1.467-1.604-.776-.971-.767-2.2-.763-3.388v-.596c-.067-.45-.717-.97-1.367-1.491-.5-.396-1-.796-1.241-1.167-.667-.737-1.188-1.592-1.704-2.437l-.063-.1c-.883-1.684-1.238-3.584-1.592-5.48-.429-2.275-.854-4.541-2.191-6.416-1.109.6-2.55.312-3.504-.492-.5.446-.542 1.03-.576 1.65l-.004.058c-1.237-1.216-1.083-3.516-.095-4.875a6.6 6.6 0 0 1 1.425-1.358c.125-.087.166-.175.162-.308.98-4.334 7.65-3.496 9.758-.43.696.859 1.171 1.842 1.646 2.826.571 1.179 1.138 2.358 2.084 3.312.916.987 1.883 1.93 2.85 2.87 1.495 1.46 2.991 2.913 4.3 4.538 2.041 2.446 3.495 5.317 4.766 8.209.209.383.334.804.459 1.22.183.626.37 1.246.833 1.738.108.146.35.367.62.617.65.595 1.488 1.366 1.205 1.704a.8.8 0 0 0 .208.25c.133.117.308.242.483.367.509.362 1.046.741.671 1.041m32.409-14.77-3.759 3.695a8.7 8.7 0 0 1-3.579 2.125l-.07.021-.026.063a8.4 8.4 0 0 1-1.975 3.004l-3.758 3.7a8.7 8.7 0 0 1-6.142 2.5c-2.32 0-4.5-.888-6.141-2.5a8.46 8.46 0 0 1 0-12.084l3.758-3.7a8.6 8.6 0 0 1 3.58-2.116l.066-.017.025-.067a8.6 8.6 0 0 1 1.979-3.016l3.758-3.696a8.7 8.7 0 0 1 6.142-2.5c2.325 0 4.5.887 6.142 2.5a8.4 8.4 0 0 1 2.541 6.041c0 2.288-.9 4.434-2.541 6.042z" clip-rule="evenodd"/></svg>