<svg xmlns="http://www.w3.org/2000/svg" fill="none" viewBox="0 0 100 100"><g clip-path="url(#a)"><path fill="url(#b)" d="M73.055 12.558A10.52 10.52 0 0 0 62.96 5h-3.072a10.52 10.52 0 0 0-10.35 8.623l-5.261 28.669 1.305-4.467a10.52 10.52 0 0 1 10.101-7.57h17.85l7.487 2.915 7.216-2.916H86.13a10.52 10.52 0 0 1-10.096-7.557z"/><path fill="url(#c)" d="M28.026 88.315a10.52 10.52 0 0 0 10.109 7.6h6.524a10.52 10.52 0 0 0 10.519-10.252l.71-27.643-1.486 5.076a10.52 10.52 0 0 1-10.099 7.565H26.305l-6.417-3.481-6.947 3.482h2.072c4.685 0 8.807 3.098 10.108 7.6z"/><path fill="url(#d)" d="M62.503 5H26.046C15.631 5 9.383 18.766 5.216 32.532c-4.937 16.31-11.395 38.12 7.291 38.12h15.74c4.704 0 8.834-3.11 10.127-7.633 2.736-9.574 7.533-26.277 11.3-38.992 1.914-6.462 3.51-12.011 5.956-15.467C57.004 6.623 59.29 5 62.502 5"/><path fill="url(#e)" d="M62.503 5H26.046C15.631 5 9.383 18.766 5.216 32.532c-4.937 16.31-11.395 38.12 7.291 38.12h15.74c4.704 0 8.834-3.11 10.127-7.633 2.736-9.574 7.533-26.277 11.3-38.992 1.914-6.462 3.51-12.011 5.956-15.467C57.004 6.623 59.29 5 62.502 5"/><path fill="url(#f)" d="M37.498 95.915h36.456c10.415 0 16.665-13.768 20.831-27.536 4.936-16.312 11.395-38.127-7.291-38.127H71.753a10.525 10.525 0 0 0-10.126 7.633c-2.737 9.576-7.534 26.283-11.301 39-1.915 6.463-3.51 12.014-5.957 15.47-1.373 1.938-3.66 3.56-6.871 3.56"/><path fill="url(#g)" d="M37.498 95.915h36.456c10.415 0 16.665-13.768 20.831-27.536 4.936-16.312 11.395-38.127-7.291-38.127H71.753a10.525 10.525 0 0 0-10.126 7.633c-2.737 9.576-7.534 26.283-11.301 39-1.915 6.463-3.51 12.014-5.957 15.47-1.373 1.938-3.66 3.56-6.871 3.56"/></g><defs><radialGradient id="b" cx="0" cy="0" r="1" gradientTransform="rotate(230.696 50.992 1.884)scale(39.3283 36.9813)" gradientUnits="userSpaceOnUse"><stop offset=".096" stop-color="#00aeff"/><stop offset=".773" stop-color="#2253ce"/><stop offset="1" stop-color="#0736c4"/></radialGradient><radialGradient id="c" cx="0" cy="0" r="1" gradientTransform="rotate(51.84 -62.162 56.578)scale(36.346 35.2566)" gradientUnits="userSpaceOnUse"><stop stop-color="#ffb657"/><stop offset=".634" stop-color="#ff5f3d"/><stop offset=".923" stop-color="#c02b3c"/></radialGradient><radialGradient id="f" cx="0" cy="0" r="1" gradientTransform="rotate(109.274 36.23 43.623)scale(87.2497 104.523)" gradientUnits="userSpaceOnUse"><stop offset=".066" stop-color="#8c48ff"/><stop offset=".5" stop-color="#f2598a"/><stop offset=".896" stop-color="#ffb152"/></radialGradient><linearGradient id="d" x1="23.865" x2="29.067" y1="12.955" y2="73.13" gradientUnits="userSpaceOnUse"><stop offset=".156" stop-color="#0d91e1"/><stop offset=".487" stop-color="#52b471"/><stop offset=".652" stop-color="#98bd42"/><stop offset=".937" stop-color="#ffc800"/></linearGradient><linearGradient id="e" x1="28.411" x2="31.251" y1="5" y2="70.653" gradientUnits="userSpaceOnUse"><stop stop-color="#3dcbff"/><stop offset=".247" stop-color="#0588f7" stop-opacity="0"/></linearGradient><linearGradient id="g" x1="92.247" x2="92.21" y1="26.242" y2="44.127" gradientUnits="userSpaceOnUse"><stop offset=".058" stop-color="#f8adfa"/><stop offset=".708" stop-color="#a86edd" stop-opacity="0"/></linearGradient><clipPath id="a"><path fill="#fff" d="M0 0h100v100H0z"/></clipPath></defs></svg>