<svg xmlns="http://www.w3.org/2000/svg" fill="none" viewBox="0 0 100 100"><path fill="url(#a)" d="M97.275 16.672 93.86 70.24 61.22 0zm-22.61 69.266L50.001 100 25.335 85.938l1.394-8.196h46.545zM6.105 70.24 2.727 16.673 38.782 0z"/><path fill="url(#b)" fill-rule="evenodd" d="m73.156 43.352-.003.024Q70.99 55.994 56.406 59.33c2.405 1.685 5.212 2.14 8.463 1.378-6.07 2.25-11.425 2.333-16.078.27.818 2.898 2.738 4.988 5.789 6.303-7.562-1.624-12.52-6.86-14.865-15.705-1.198 1.58-1.107 4.214.265 7.947-4.093-4.957-4.857-10.168-2.273-15.62q4.06-8.988 14.76-7.202c9.681 10.624 15.924 13.726 18.697 9.295 1.214-3.79-.034-8.453-3.75-13.971-2.67-3.77-5.812-6.414-9.403-7.89-.735-2.086-2.043-3.548-3.879-4.312-1.278-.597-2.46-.713-3.496-.292q-.252.104-.502.212c-1.649.705-4.386 1.878-7.435.72q-3.382-1.286-4.75 1.648-1.345 3.007-1.803 3.265c-.464.361-1.45.739-2.952 1.125q-2.25.581-2.824 1.793-1.057 2.566-.765 4.142c-.339 1.304-.883 2.184-1.63 2.62q-.247.144-.497.28c-.784.433-1.177.649-1.373 1.573l-.016.075c-.223 1.04-.297 1.385.774 4.853-.699 5.146.15 10.102 2.545 14.849-.003-.007 3.349 8.366 12.57 12.73q14.654 6.059 26.092-4.295c-4.518.91-7.843.973-9.96.201 8.052-.587 13.321-4.513 15.835-11.773-3.348 2.586-5.94 4.093-7.76 4.499 3.117-1.986 5.25-4.278 6.413-6.855q1.745-3.867.56-7.84zm-12.29-10.68c-.736.95-1.713 3.16.26 4.404s1.094-.312.408-1.247c-.686-.933-.668-3.157-.668-3.157" clip-rule="evenodd"/><defs><radialGradient id="a" cx="0" cy="0" r="1" gradientTransform="matrix(0 54.2307 -51.2743 0 50.096 45.716)" gradientUnits="userSpaceOnUse"><stop stop-color="#aa1bb6"/><stop offset="1" stop-color="#452070"/></radialGradient><radialGradient id="b" cx="0" cy="0" r="1" gradientTransform="rotate(26.565 -77.872 130.066)scale(37.5343 33.4948)" gradientUnits="userSpaceOnUse"><stop offset=".271" stop-color="#b1219b"/><stop offset="1" stop-color="#5306a1"/></radialGradient></defs></svg>