<svg xmlns="http://www.w3.org/2000/svg" fill="none" viewBox="0 0 100 100"><path fill="#61dafb" d="M29.66 5.418c-1.656.056-3.234.46-4.66 1.281-2.85 1.645-4.552 4.664-5.316 8.237s-.684 7.822.078 12.578c.293 1.834.723 3.762 1.22 5.733-1.955.554-3.84 1.148-5.575 1.81-4.5 1.72-8.219 3.774-10.931 6.223C1.763 43.73 0 46.71 0 50s1.763 6.274 4.476 8.722c2.712 2.45 6.43 4.505 10.93 6.224 1.735.662 3.62 1.255 5.575 1.81-.497 1.971-.926 3.9-1.22 5.732-.762 4.758-.84 9.006-.077 12.578.766 3.574 2.465 6.592 5.315 8.238s6.313 1.61 9.79.484c3.477-1.125 7.117-3.318 10.856-6.356 1.44-1.17 2.896-2.505 4.355-3.922 1.458 1.417 2.914 2.751 4.355 3.922 3.737 3.039 7.376 5.232 10.854 6.357 3.476 1.125 6.941 1.16 9.791-.484 2.85-1.647 4.552-4.665 5.316-8.238s.682-7.822-.08-12.578c-.293-1.834-.721-3.762-1.218-5.733 1.955-.555 3.84-1.148 5.575-1.81 4.5-1.718 8.219-3.773 10.931-6.223 2.713-2.449 4.476-5.432 4.476-8.722 0-3.291-1.763-6.272-4.476-8.72-2.712-2.45-6.431-4.505-10.931-6.223-1.734-.662-3.618-1.257-5.574-1.811.497-1.971.925-3.9 1.22-5.733.761-4.756.84-9.005.076-12.578C79.55 11.362 77.85 8.344 75 6.699s-6.312-1.61-9.79-.484c-3.476 1.125-7.117 3.318-10.855 6.356-1.44 1.172-2.899 2.506-4.357 3.923-1.459-1.416-2.914-2.752-4.355-3.923-3.737-3.038-7.374-5.233-10.85-6.358-1.74-.562-3.476-.851-5.134-.797zm.2 4.332c1.04-.03 2.23.162 3.594.601 2.727.883 5.996 2.79 9.448 5.594 1.33 1.08 2.69 2.33 4.06 3.664-2.863 3.094-5.702 6.612-8.449 10.496-4.736.437-9.203 1.137-13.315 2.07-.468-1.855-.871-3.656-1.143-5.35-.703-4.39-.718-8.175-.118-10.978.599-2.803 1.72-4.506 3.237-5.382.759-.437 1.647-.687 2.686-.715m40.28 0c1.04.029 1.928.277 2.687.715 1.517.875 2.638 2.579 3.237 5.38.6 2.803.586 6.59-.117 10.98-.271 1.692-.674 3.496-1.143 5.349-4.111-.932-8.578-1.633-13.317-2.07-2.746-3.882-5.587-7.401-8.45-10.496 1.37-1.333 2.733-2.584 4.062-3.664 3.452-2.806 6.721-4.709 9.449-5.592 1.363-.44 2.554-.631 3.593-.601zM50 22.737a97 97 0 0 1 5.813 6.973c-1.91-.086-3.842-.144-5.813-.144s-3.902.057-5.812.144A96 96 0 0 1 50 22.736m0 11.178c3.113 0 6.148.122 9.09.343a121 121 0 0 1 4.842 7.698A121 121 0 0 1 68.177 50a121 121 0 0 1-4.245 8.043 121 121 0 0 1-4.844 7.7c-2.94.22-5.975.344-9.087.344q-4.553 0-9.092-.344a121 121 0 0 1-4.842-7.7 121 121 0 0 1-4.245-8.042 121 121 0 0 1 4.247-8.044 121 121 0 0 1 4.843-7.7q4.538-.343 9.088-.343m-14.666.908a128 128 0 0 0-3.032 4.961 128 128 0 0 0-2.78 5.105 97 97 0 0 1-3.135-8.52 97 97 0 0 1 8.947-1.546m29.333 0q4.51.562 8.947 1.546a97 97 0 0 1-3.134 8.521 128 128 0 0 0-2.782-5.107 128 128 0 0 0-3.03-4.96m-42.507 2.61C23.41 41.46 25.036 45.68 27.027 50c-1.992 4.322-3.617 8.542-4.867 12.569-1.84-.52-3.601-1.074-5.203-1.685-4.155-1.586-7.44-3.467-9.569-5.389-2.127-1.92-3.041-3.742-3.041-5.494s.914-3.572 3.041-5.492c2.128-1.922 5.414-3.803 9.569-5.389 1.602-.611 3.363-1.166 5.203-1.686m55.68 0c1.84.52 3.603 1.075 5.203 1.688 4.156 1.586 7.441 3.465 9.57 5.387 2.127 1.921 3.04 3.742 3.04 5.493s-.913 3.574-3.04 5.494c-2.129 1.922-5.415 3.802-9.57 5.388-1.6.611-3.364 1.164-5.204 1.685-1.248-4.026-2.875-8.245-4.865-12.566 1.992-4.322 3.617-8.541 4.866-12.569M50 41.088a8.914 8.914 0 0 0 0 17.825 8.914 8.914 0 0 0 0-17.825m20.48 14.024a97 97 0 0 1 3.132 8.522 97 97 0 0 1-8.943 1.547 128 128 0 0 0 3.029-4.963q1.448-2.52 2.782-5.106m-40.959.002a128 128 0 0 0 2.781 5.104 130 130 0 0 0 3.032 4.962 96 96 0 0 1-8.947-1.546 97 97 0 0 1 3.134-8.52m-4.324 12.715c4.11.931 8.578 1.63 13.316 2.067 2.747 3.885 5.588 7.404 8.45 10.5-1.37 1.332-2.73 2.582-4.06 3.664-3.451 2.805-6.724 4.71-9.451 5.594-2.727.881-4.762.76-6.28-.116-1.517-.876-2.636-2.578-3.235-5.38-.6-2.803-.585-6.589.118-10.982.272-1.691.672-3.494 1.142-5.347m49.605 0c.47 1.853.872 3.656 1.143 5.347.703 4.393.72 8.179.12 10.982s-1.721 4.505-3.238 5.382c-1.518.875-3.552.995-6.28.112-2.727-.883-5.996-2.789-9.448-5.594-1.329-1.08-2.69-2.33-4.06-3.664 2.863-3.093 5.702-6.614 8.448-10.498 4.737-.437 9.204-1.136 13.315-2.067M44.187 70.29q2.905.14 5.814.145 2.909-.006 5.814-.145A96 96 0 0 1 50 77.268a96 96 0 0 1-5.813-6.977"/></svg>