<svg xmlns="http://www.w3.org/2000/svg" fill="none" viewBox="0 0 100 100"><g clip-path="url(#a)"><path fill="#e32186" d="M5.762 63.23C3.71 56.844 3.122 50.1 4.303 43.16c.513-2.878 1.303-5.64 2.17-8.439 0 0 5.441-17.861 23.855-26.025 0 0 6.348-3.351 15.89-3.586 0 0-1.3-1.263-2.129-1.815C39.594.298 32.892-.688 28.83 3.533c-1.224 1.26-2.25 2.642-3.39 3.903-1.303 1.419-2.882 2.603-4.694 3.271-1.578.592-3.156.474-4.77.751-1.657.275-3.354.867-4.693 1.932-1.46 1.184-2.051 2.759-2.207 4.574-.159 1.42-.119 2.878-.199 4.297-.197 4.181-1.537 5.363-4.534 7.69-1.261.947-2.326 2.207-3.117 3.55-2.364 4.178 1.422 8.514 1.618 12.735.04.867-.04 1.734-.353 2.563-.318.907-.947 1.499-1.46 2.246-.71.987-1.183 2.17-.984 3.391.195 1.224.826 2.368 1.419 3.434 1.144 1.892 2.563 3.586 4.062 5.203.078 0 .156.079.234.158"/><path fill="url(#b)" d="M81 78.367c9.07-3.943 12.933-10.763 12.933-10.763 8.479-11.554 5.6-23.737 5.6-23.737-5.4 11.75-10.333 14.985-10.333 14.985 13.291-20.23.08-32.453.08-32.453 5.401 11.514-1.774 25.55-1.774 25.55-6.033 12.698-14.59 17.233-14.59 17.233 9.543 1.773 16.562-4.654 16.562-4.654-13.685 14.786-28.51 14.078-28.51 14.078 6.232 6.98 15.576 6.388 15.576 6.388-12.222 2.877-23.696-1.185-33.12-9.031a52 52 0 0 1-5.047-4.73s-1.42-1.499-1.698-1.892l-.04-.04c-.195 7.293 7.413 14.075 7.413 14.075-9.543-3.942-13.918-12.5-13.918-12.5s-6.428-10.961-1.774-23.459c4.65-12.5 18.729-15.183 18.729-15.183 11.634 5.641 21.49 7.414 21.49 7.414 20.78 3.47 19.599-6.702 19.599-6.702.195-8.755-13.013-18.06-13.013-18.06-23.54-17.469-44.833-6.192-44.833-6.192C11.918 16.857 6.476 34.719 6.476 34.719c-.867 2.798-1.656 5.56-2.17 8.437-2.01 11.714 1.026 22.792 7.612 32.652C22.168 91.106 38.81 96.389 38.81 96.389c24.643 8.359 41.48-3.943 41.48-3.943 15.497-10.648 18.612-22.95 18.612-22.95-12.5 9.782-17.901 8.872-17.901 8.872zM61.758 20.838a2.12 2.12 0 0 1 2.128 2.13 2.12 2.12 0 0 1-2.128 2.127 2.12 2.12 0 0 1-2.13-2.126 2.12 2.12 0 0 1 2.13-2.13"/><path fill="url(#c)" d="M88.133 32.907c.195-8.755-13.013-18.06-13.013-18.06C51.58-2.582 30.287 8.695 30.287 8.695 11.873 16.858 6.43 34.72 6.43 34.72c-1.065 3.037-2.01 7.69-2.01 7.69-1.145 5.836-.633 11.237-.633 11.237.474 5.166 1.617 8.637 1.617 8.637 1.185 3.705 1.735 4.849 1.735 4.849-.038-.12-.235-.986-.235-.986s-1.658-7.965-.12-15.616c0 0 1.34-7.964 6.784-14.114 0 0 8.832-12.58 25.275-7.65 0 0 3.55 1.263 4.77 1.892 1.224.592 3.352 1.498 3.352 1.498 11.632 5.64 21.49 7.413 21.49 7.413 20.859 3.51 19.677-6.662 19.677-6.662m-26.38-7.77a2.117 2.117 0 0 1-2.13-2.127 2.12 2.12 0 0 1 2.13-2.13 2.12 2.12 0 0 1 2.127 2.13 2.12 2.12 0 0 1-2.127 2.128"/><path fill="url(#d)" d="m48.27 17.056-13.447-4.18c-.08 0-.472-.2-1.184 0 0 0-7.926 2.01-6.545 6.347 0 0 .83 2.722 3.075 5.362l14.786-.708z"/></g><defs><linearGradient id="b" x1="15.185" x2="64.251" y1="91.777" y2="39.578" gradientUnits="userSpaceOnUse"><stop stop-color="#df1c84"/><stop offset=".401" stop-color="#de1c85"/><stop offset=".77" stop-color="#932c86"/><stop offset="1" stop-color="#5c2f87"/></linearGradient><linearGradient id="d" x1="26.902" x2="48.257" y1="18.686" y2="18.686" gradientUnits="userSpaceOnUse"><stop stop-color="#df1c84"/><stop offset=".238" stop-color="#d91e85"/><stop offset=".658" stop-color="#c72085"/><stop offset=".999" stop-color="#b42184"/></linearGradient><radialGradient id="c" cx="0" cy="0" r="1" gradientTransform="matrix(47.9405 .11398 -.09498 40.0872 69.192 25.73)" gradientUnits="userSpaceOnUse"><stop stop-color="#df1c84"/><stop offset=".139" stop-color="#de1e85"/><stop offset=".285" stop-color="#d62085"/><stop offset=".434" stop-color="#c82286"/><stop offset=".586" stop-color="#b72786"/><stop offset=".739" stop-color="#9c2a86"/><stop offset=".891" stop-color="#7c2e87"/><stop offset="1" stop-color="#5c2f87"/></radialGradient><clipPath id="a"><path fill="#fff" d="M0 0h100v100H0z"/></clipPath></defs></svg>