<svg xmlns="http://www.w3.org/2000/svg" fill="none" viewBox="0 0 100 100"><g clip-path="url(#a)"><path fill="#85ea2d" d="M50.617 97.23C24.36 97.23 3 75.872 3 49.616 3 23.358 24.361 1.999 50.617 1.999S98.234 23.36 98.234 49.616 76.872 97.23 50.617 97.23"/><path fill="#173647" d="M50 4.765c24.982 0 45.233 20.251 45.233 45.234 0 24.98-20.251 45.233-45.234 45.233-24.98 0-45.233-20.252-45.233-45.233C4.766 25.017 25.018 4.764 50 4.764M50 0C22.43 0 0 22.43 0 50s22.43 49.999 50 49.999 50-22.43 50-50S77.57 0 50 0"/><path fill="#173647" d="M31.92 33.388c-.155 1.71.056 3.48-.058 5.21a42 42 0 0 1-.692 5.153c-.48 2.442-2 4.288-4.095 5.826 4.077 2.653 4.538 6.767 4.807 10.94.134 2.25.076 4.518.307 6.748.173 1.73.846 2.173 2.635 2.23.73.019 1.479 0 2.327 0v5.345c-5.288.903-9.652-.596-10.73-5.075a31 31 0 0 1-.653-5c-.116-1.788.076-3.576-.058-5.364-.385-4.903-1.02-6.556-5.71-6.787V46.52a9 9 0 0 1 1.018-.172c2.577-.135 3.672-.924 4.23-3.462.27-1.422.424-2.864.48-4.325.194-2.788.117-5.633.596-8.402.673-3.98 3.135-5.902 7.23-6.133 1.154-.058 2.327 0 3.654 0v5.46c-.558.04-1.039.116-1.539.116-3.326-.116-3.5 1.018-3.75 3.787m6.402 12.65h-.077a3.517 3.517 0 0 0-3.673 3.327c-.096 1.942 1.403 3.596 3.326 3.69h.231c1.904.117 3.537-1.345 3.653-3.248v-.192c.039-1.942-1.518-3.537-3.46-3.576m12.055 0c-1.865-.057-3.423 1.404-3.48 3.25 0 .116 0 .212.02.327 0 2.096 1.422 3.442 3.576 3.442 2.115 0 3.442-1.384 3.442-3.557-.02-2.096-1.424-3.48-3.558-3.461m12.344 0a3.59 3.59 0 0 0-3.652 3.48 3.53 3.53 0 0 0 3.537 3.538h.038c1.77.308 3.558-1.403 3.673-3.46.096-1.904-1.635-3.557-3.595-3.557m16.94.289c-2.232-.096-3.347-.846-3.904-2.962a21.4 21.4 0 0 1-.634-4.134c-.154-2.576-.135-5.172-.308-7.748-.404-6.114-4.825-8.248-11.248-7.191v5.307c1.018 0 1.807 0 2.596.019 1.365.019 2.403.538 2.537 2.058.135 1.384.135 2.787.27 4.191.27 2.789.423 5.614.904 8.364.423 2.268 1.98 3.96 3.921 5.345-3.402 2.288-4.402 5.556-4.575 9.229-.096 2.518-.154 5.056-.288 7.595-.116 2.306-.922 3.056-3.25 3.114-.653.019-1.287.077-2.018.116v5.44c1.365 0 2.614.078 3.864 0 3.884-.23 6.23-2.114 6.999-5.883.327-2.077.519-4.172.577-6.268.134-1.922.116-3.864.308-5.767.287-2.98 1.653-4.211 4.633-4.403.289-.039.558-.096.828-.192v-6.096c-.501-.057-.848-.114-1.213-.134"/></g><defs><clipPath id="a"><path fill="#fff" d="M0 0h100v100H0z"/></clipPath></defs></svg>